<?xml version="1.0" encoding="UTF-8"?>
<!DOCTYPE svg PUBLIC "-//W3C//DTD SVG 1.1//EN" "http://www.w3.org/Graphics/SVG/1.1/DTD/svg11.dtd">
<!-- Creator: CorelDRAW -->
<svg xmlns="http://www.w3.org/2000/svg" xml:space="preserve" width="83px" height="25px" version="1.1" style="shape-rendering:geometricPrecision; text-rendering:geometricPrecision; image-rendering:optimizeQuality; fill-rule:evenodd; clip-rule:evenodd"
viewBox="0 0 27.96 8.42"
 xmlns:xlink="http://www.w3.org/1999/xlink"
 xmlns:xodm="http://www.corel.com/coreldraw/odm/2003">
 <defs>
  <style type="text/css">
   <![CDATA[
    .fil1 {fill:#008102}
    .fil0 {fill:#008102}
    .fil2 {fill:white}
    .fil3 {fill:#008102;fill-rule:nonzero}
    .fil4 {fill:white;fill-rule:nonzero}
   ]]>
  </style>
 </defs>
 <g id="Capa_x0020_1">
  <metadata id="CorelCorpID_0Corel-Layer"/>
  <g>
   <polygon class="fil0" points="0,1.44 20.65,0 20.65,8.42 0,7.51 "/>
   <path id="_1" class="fil1" d="M0 1.44l20.65 -1.44 0 8.42 -20.65 -0.91 0 -6.07zm20.65 -1.44l-20.65 1.44 0 6.07 20.65 0.91 0 -8.42z"/>
  </g>
  <g>
   <polygon class="fil0" points="27.96,1.2 20.65,0 20.65,8.42 27.96,7.27 "/>
   <path id="_1_2" class="fil1" d="M27.95 1.2l-7.3 -1.2 0 8.42 7.3 -1.15 0 -6.07zm0.01 0l-7.31 -1.2 0 8.42 7.31 -1.15 0 -6.07z"/>
  </g>
  <polygon class="fil2" points="0.19,1.59 20.46,0.21 20.46,8.25 0.19,7.32 "/>
  <path class="fil3" d="M0.5 2.14l1.25 0c0.26,0 0.47,0.03 0.65,0.1 0.17,0.06 0.31,0.2 0.41,0.42 0.1,0.21 0.15,0.45 0.15,0.72 0,0.43 -0.1,0.75 -0.3,0.98 -0.2,0.22 -0.76,0.33 -1.14,0.33l-0.24 0 0 1.75 -0.78 0 0 -4.3zm0.78 2.04l0.24 0c0.27,0 0.46,-0.06 0.57,-0.2 0.11,-0.13 0.17,-0.33 0.17,-0.58 0,-0.17 -0.03,-0.32 -0.09,-0.45 -0.07,-0.13 -0.15,-0.22 -0.24,-0.25 -0.1,-0.04 -0.24,-0.05 -0.42,-0.05l-0.23 0 0 1.53zm4.61 2.42l-0.75 0c-0.02,-0.28 -0.07,-1.79 -0.21,-1.94 -0.13,-0.13 -0.47,-0.09 -0.66,-0.09l0 1.99 -0.8 0 0 -4.6c0.62,-0.03 2.07,-0.24 2.31,0.51 0.47,1.44 -0.44,1.75 -0.44,1.77 0.42,0.14 0.41,0.35 0.46,0.99l0.09 1.37zm-1.62 -2.59l0.27 0c0.5,0 0.54,-0.39 0.54,-0.8 0,-0.61 -0.19,-0.73 -0.81,-0.73l0 1.53zm3.78 0.74l-0.39 -2.3 -0.29 2.3 0.68 0zm1.14 2.02l-0.82 0 -0.27 -1.4 -0.8 0 -0.23 1.28 -0.73 0 0.8 -4.92 1.09 -0.02 0.96 5.06zm1.16 0.05l-0.76 0 0 -5.26 0.76 0 0 5.26zm1.91 0.21c-1.33,0 -1.27,-1.44 -1.27,-2.77 0,-1.78 -0.13,-2.95 1.27,-2.95 1.11,0 1.07,0.88 1.13,1.6l-0.76 0c0,-0.71 -0.12,-0.89 -0.46,-0.89 -0.35,-0.01 -0.4,0.4 -0.4,2.1 0,2.17 0.05,2.14 0.45,2.15 0.39,0 0.4,-0.53 0.4,-0.98l0.77 0c-0.06,0.84 0,1.74 -1.13,1.74zm7.42 0.2l-0.86 0 -1.01 -4.4 0 4.32 -0.68 0 0 -6.13 0.8 0 1.03 4.47 0 -4.57 0.67 0 0.05 6.31z"/>
  <path class="fil3" d="M16.44 6c0,0.64 -0.57,1.17 -1.27,1.17 -0.7,0 -1.22,-0.53 -1.22,-1.17 0,-0.64 -0.04,-3.7 -0.04,-3.7 0,-0.65 0.56,-1.17 1.26,-1.17 0.7,0 1.27,0.52 1.27,1.17 0,0.64 0,3.7 0,3.7z"/>
  <path class="fil4" d="M15.68 5.75c0,0.49 -0.22,0.64 -0.48,0.64 -0.26,0 -0.48,-0.15 -0.48,-0.64 0,-0.48 -0.03,-3.25 -0.03,-3.25 0,-0.48 0.22,-0.61 0.48,-0.61 0.27,0 0.48,0.13 0.48,0.61 0,0.48 0.03,3.25 0.03,3.25z"/>
  <path class="fil4" d="M22.02 7.25c-0.37,0.1 -0.76,-0.06 -0.93,-0.46 -0.16,-0.39 -0.19,-0.79 -0.2,-1.42l0.74 0c-0.09,1.71 0.75,1.05 0.59,0.21 -0.11,-0.59 -0.15,-0.7 -0.47,-1.1 -0.41,-0.49 -0.84,-1.16 -0.84,-1.82 0,-0.5 0.05,-0.94 0.2,-1.27 0.16,-0.32 0.38,-0.49 0.78,-0.49 0.26,0 0.59,0.33 0.75,0.66 0.16,0.33 0.22,0.81 0.18,1.3l-0.65 -0.02c-0.03,-0.76 -0.06,-1.05 -0.28,-1.05 -0.27,0 -0.25,0.3 -0.25,0.81 0,0.71 0.82,1.13 1.11,1.89 0.33,0.91 0.28,2.51 -0.73,2.76zm3.23 -0.68l-0.67 0.1c-0.17,-1.46 0.28,-2.27 -0.6,-2.27l0.03 2.41 -0.73 0.1 -0.05 -5.67c0.5,0 1.2,0.07 1.55,0.4 0.5,0.47 0.73,1.95 0.04,2.32l0 0.02c0.34,0.16 0.45,0.37 0.43,2.59zm-1.32 -2.9c0.67,0 0.6,-0.44 0.6,-0.9 0,-0.3 -0.02,-0.73 -0.6,-0.73l0 1.63zm3.49 2.54l-1.75 0.29 0 -4.9 0.71 0.11 0.01 3.96 1.02 -0.11 0.01 0.65z"/>
 </g>
</svg>
